<svg xmlns="http://www.w3.org/2000/svg" width="703" height="146" viewBox="0 0 703 146">
<g>
<path d="M 56.93,118.99 L 54.78,118.63 L 50.67,117.29 L 48.65,116.53 L 44.85,114.46 L 43.00,113.35 L 39.59,110.66 L 37.95,109.24 L 35.02,106.02 L 33.63,104.35 L 31.26,100.69 L 30.15,98.81 L 28.42,94.81 L 27.64,92.78 L 26.62,88.54 L 26.00,82.00 L 26.00,80.41 L 26.24,77.39 L 26.41,75.91 L 27.01,73.07 L 27.35,71.67 L 28.34,68.95 L 28.89,67.61 L 30.30,64.95 L 31.06,63.62 L 32.93,60.97 L 33.92,59.64 L 36.28,56.92 L 37.53,55.55 L 40.41,52.72 L 45.37,48.28 L 46.66,47.18 L 49.09,45.20 L 50.29,44.25 L 52.56,42.54 L 53.68,41.72 L 55.81,40.28 L 56.86,39.59 L 58.86,38.39 L 60.84,37.26 L 64.50,35.70 L 69.71,34.32 L 70.40,34.22 L 71.74,33.79 L 72.41,33.54 L 73.79,32.77 L 74.49,32.33 L 76.01,31.15 L 78.54,28.87 L 79.29,28.14 L 80.68,26.90 L 81.36,26.32 L 82.65,25.34 L 83.92,24.43 L 86.33,23.34 L 87.55,22.91 L 90.11,22.69 L 94.47,23.20 L 95.37,23.39 L 96.82,23.83 L 97.49,24.06 L 98.57,24.64 L 99.07,24.96 L 99.91,25.77 L 101.05,27.33 L 101.52,28.09 L 102.28,29.11 L 102.67,29.54 L 103.69,30.04 L 104.28,30.25 L 106.07,30.41 L 106.60,30.44 L 107.88,30.47 L 110.23,30.48 L 111.09,30.48 L 112.54,30.48 L 113.22,30.47 L 114.35,30.42 L 115.41,30.36 L 116.86,30.04 L 117.52,29.83 L 118.58,29.07 L 120.34,27.26 L 121.13,26.36 L 123.18,24.86 L 124.25,24.17 L 126.63,23.19 L 127.84,22.77 L 130.28,22.40 L 133.70,22.64 L 134.08,22.74 L 135.19,23.30 L 135.79,23.64 L 137.20,24.59 L 141.72,28.29 L 142.72,29.24 L 144.46,30.71 L 145.29,31.39 L 146.83,32.38 L 147.59,32.83 L 149.12,33.46 L 151.61,34.12 L 153.37,34.45 L 156.61,35.47 L 158.23,36.06 L 161.55,37.83 L 162.41,38.34 L 164.23,39.53 L 165.16,40.16 L 167.16,41.64 L 168.19,42.41 L 170.44,44.21 L 174.16,47.30 L 175.59,48.52 L 178.06,50.65 L 179.23,51.68 L 181.23,53.50 L 182.19,54.38 L 183.81,55.98 L 184.58,56.75 L 185.88,58.21 L 187.13,59.64 L 188.99,62.42 L 191.42,67.16 L 192.04,68.55 L 193.00,71.35 L 193.44,72.75 L 194.05,75.57 L 194.31,76.97 L 194.58,79.79 L 194.67,81.19 L 194.61,83.98 L 194.54,85.37 L 194.16,88.10 L 193.94,89.46 L 193.26,92.12 L 192.88,93.44 L 191.92,96.00 L 191.40,97.27 L 190.15,99.71 L 189.49,100.92 L 187.98,103.21 L 187.20,104.34 L 185.43,106.47 L 184.52,107.52 L 182.52,109.45 L 181.49,110.40 L 179.26,112.12 L 178.12,112.96 L 175.68,114.44 L 174.43,115.16 L 171.79,116.38 L 170.45,116.96 L 167.61,117.90 L 163.17,118.97 L 160.86,119.39 L 156.26,119.52 L 153.97,119.47 L 149.50,118.71 L 147.29,118.22 L 143.06,116.65 L 140.98,115.77 L 137.09,113.44 L 135.19,112.20 L 131.75,109.20 L 130.09,107.62 L 127.19,104.01 L 125.82,102.14 L 123.58,97.99 L 121.07,91.24 L 120.79,90.22 L 120.08,88.69 L 119.71,88.02 L 118.88,87.25 L 118.46,86.97 L 117.62,87.02 L 116.43,88.11 L 116.35,88.23 L 115.95,88.43 L 115.70,88.52 L 114.99,88.65 L 114.21,88.75 L 111.89,88.77 L 110.63,88.74 L 107.59,88.49 L 102.56,87.82 L 102.20,87.76 L 101.61,87.82 L 101.33,87.89 L 100.90,88.26 L 100.70,88.48 L 100.37,89.20 L 99.95,90.73 L 99.59,92.40 L 98.45,95.65 L 97.81,97.26 L 96.15,100.34 L 95.26,101.85 L 93.13,104.70 L 92.02,106.09 L 89.48,108.66 L 88.16,109.91 L 85.27,112.14 L 83.79,113.21 L 80.60,115.06 L 78.98,115.92 L 75.55,117.33 L 70.20,118.88 L 69.47,119.03 L 68.23,119.28 L 67.64,119.40 L 66.61,119.57 L 65.61,119.73 L 63.88,119.82 L 63.00,119.83 L 60.99,119.62 L 60.44,119.55 L 59.17,119.36 L 58.50,119.26 M 71.89,106.54 L 73.12,106.10 L 75.41,105.03 L 76.52,104.46 L 78.56,103.12 L 79.55,102.42 L 81.33,100.84 L 82.19,100.02 L 83.70,98.21 L 84.42,97.28 L 85.64,95.25 L 86.21,94.22 L 87.14,92.00 L 87.56,90.87 L 88.17,88.48 L 88.73,84.71 L 88.82,83.57 L 88.89,81.47 L 88.90,80.45 L 88.79,78.57 L 88.64,76.74 L 87.77,73.52 L 87.22,71.96 L 85.46,69.02 L 84.96,68.28 L 83.77,66.80 L 81.69,64.51 L 80.84,63.64 L 79.17,62.13 L 78.33,61.42 L 76.65,60.20 L 75.81,59.62 L 74.10,58.68 L 73.24,58.25 L 71.48,57.58 L 70.59,57.28 L 68.75,56.88 L 67.82,56.72 L 65.88,56.57 L 64.90,56.54 L 62.84,56.64 L 59.59,57.07 L 57.78,57.40 L 54.86,58.14 L 53.48,58.53 L 51.17,59.51 L 50.07,60.05 L 48.04,61.45 L 44.96,64.20 L 44.03,65.13 L 42.44,67.20 L 41.69,68.27 L 40.45,70.58 L 39.89,71.76 L 39.02,74.24 L 38.64,75.50 L 38.16,78.11 L 37.96,79.42 L 37.87,82.09 L 37.87,83.42 L 38.17,86.09 L 38.37,87.42 L 39.07,90.02 L 40.59,93.81 L 41.30,95.24 L 43.08,97.81 L 44.02,99.05 L 46.20,101.22 L 47.33,102.25 L 49.83,103.98 L 51.12,104.79 L 53.87,106.05 L 55.28,106.62 L 58.21,107.39 L 59.69,107.71 L 62.73,107.95 L 64.26,108.00 L 67.33,107.68 L 68.86,107.45 M 167.50,105.63 L 168.58,105.13 L 170.58,103.95 L 171.56,103.34 L 173.34,101.98 L 174.20,101.28 L 175.76,99.75 L 176.51,98.97 L 177.84,97.30 L 179.11,95.60 L 180.96,91.86 L 181.76,89.96 L 182.65,85.94 L 182.97,83.92 L 182.87,79.81 L 182.69,77.76 L 181.58,73.74 L 181.24,72.75 L 180.35,70.81 L 179.88,69.86 L 178.73,68.00 L 178.13,67.09 L 176.71,65.34 L 174.29,62.87 L 173.05,61.76 L 170.52,60.01 L 169.23,59.22 L 166.50,58.07 L 165.10,57.56 L 162.06,56.97 L 157.00,56.66 L 155.21,56.68 L 151.80,57.20 L 150.13,57.54 L 147.01,58.66 L 145.50,59.29 L 142.73,60.94 L 141.39,61.83 L 139.02,63.97 L 137.89,65.09 L 135.99,67.64 L 135.10,68.97 L 133.72,71.89 L 133.10,73.38 L 132.30,76.60 L 131.81,81.71 L 131.82,83.31 L 132.16,86.68 L 132.26,87.48 L 132.53,88.88 L 132.97,90.50 L 133.65,92.29 L 135.48,95.51 L 136.46,97.06 L 138.82,99.77 L 140.05,101.06 L 142.83,103.20 L 144.26,104.20 L 147.35,105.75 L 148.93,106.44 L 152.24,107.33 L 153.91,107.69 L 157.33,107.88 L 159.04,107.89 L 162.47,107.34 L 164.17,106.97 M 114.45,79.45 L 115.43,78.99 L 117.04,77.76 L 117.78,77.10 L 118.90,75.50 L 119.39,74.65 L 120.02,72.67 L 120.40,69.32 L 120.40,68.62 L 120.24,67.44 L 120.13,66.88 L 119.71,65.87 L 119.45,65.37 L 118.68,64.38 L 117.06,62.76 L 116.34,62.12 L 115.18,61.23 L 114.63,60.85 L 113.60,60.40 L 113.07,60.23 L 111.90,60.14 L 109.71,60.31 L 108.73,60.44 L 106.96,61.01 L 106.11,61.34 L 104.62,62.25 L 103.91,62.75 L 102.73,63.95 L 102.19,64.57 L 101.36,65.99 L 100.99,66.71 L 100.54,68.28 L 100.37,69.08 L 100.33,70.73 L 100.36,71.56 L 100.77,73.24 L 101.91,75.71 L 102.34,76.40 L 103.28,77.48 L 103.77,77.99 L 105.00,78.82 L 105.67,79.21 L 107.42,79.89 L 110.85,80.91 L 110.90,80.92 L 111.24,80.82 L 111.45,80.76 L 112.05,80.52 L 112.71,80.26 M 295.20,108.11 L 293.39,107.48 L 290.19,105.89 L 288.66,105.03 L 285.97,102.95 L 284.68,101.84 L 282.45,99.21 L 279.56,94.59 L 278.89,93.30 L 277.86,90.68 L 277.40,89.37 L 276.75,86.74 L 276.47,85.43 L 276.19,82.81 L 276.09,81.51 L 276.15,78.93 L 276.22,77.65 L 276.61,75.15 L 276.84,73.91 L 277.54,71.51 L 277.92,70.33 L 278.91,68.05 L 279.44,66.94 L 280.70,64.82 L 281.36,63.79 L 282.87,61.86 L 283.66,60.92 L 285.41,59.21 L 286.31,58.39 L 288.27,56.92 L 289.28,56.22 L 291.44,55.02 L 292.54,54.46 L 294.89,53.57 L 296.08,53.17 L 298.58,52.60 L 299.85,52.37 L 302.50,52.17 L 306.61,52.30 L 308.19,52.46 L 311.06,53.07 L 312.47,53.42 L 315.09,54.46 L 316.38,55.04 L 318.89,56.57 L 322.67,59.50 L 323.26,60.00 L 324.21,60.82 L 324.64,61.21 L 325.22,61.93 L 325.46,62.30 L 325.58,63.14 L 325.57,63.59 L 325.12,64.73 L 324.82,65.36 L 323.73,67.02 L 323.41,67.47 L 322.63,68.51 L 322.22,69.05 L 321.24,70.29 L 320.73,70.93 L 319.55,72.39 L 318.93,73.14 L 317.53,74.85 L 316.80,75.73 L 315.16,77.70 L 312.44,80.99 L 310.87,82.89 L 308.00,86.40 L 307.31,87.24 L 306.06,88.80 L 305.45,89.56 L 304.36,90.92 L 303.84,91.58 L 302.96,92.70 L 302.55,93.23 L 301.90,94.08 L 301.61,94.47 L 301.23,95.00 L 301.00,95.40 L 301.00,95.53 L 301.26,95.73 L 301.43,95.81 L 301.98,95.92 L 302.58,96.01 L 304.30,95.97 L 305.20,95.91 L 307.05,95.60 L 309.32,94.88 L 309.62,94.72 L 310.38,94.24 L 310.78,93.97 L 311.67,93.32 L 314.28,91.17 L 317.05,88.58 L 321.66,93.18 L 322.20,93.73 L 323.11,94.65 L 323.53,95.08 L 324.19,95.80 L 324.80,96.48 L 325.38,97.45 L 325.58,97.89 L 325.48,98.66 L 324.72,99.99 L 324.28,100.62 L 323.10,101.87 L 322.46,102.49 L 320.96,103.68 L 319.39,104.86 L 315.63,106.89 L 313.69,107.83 L 309.69,109.14 L 308.70,109.41 L 306.80,109.76 L 304.12,109.97 L 303.63,109.96 L 302.30,109.81 L 301.60,109.71 L 300.01,109.41 L 298.39,109.07 M 300.06,77.25 L 308.16,66.50 L 305.05,66.18 L 304.16,66.09 L 302.36,66.27 L 301.46,66.42 L 299.70,67.01 L 298.83,67.36 L 297.16,68.32 L 296.35,68.83 L 294.86,70.08 L 294.14,70.74 L 292.89,72.22 L 292.30,72.98 L 291.35,74.63 L 290.93,75.47 L 290.36,77.22 L 290.01,79.90 L 290.02,80.80 L 290.17,82.68 L 290.27,83.61 L 290.55,85.30 L 290.71,86.08 L 291.06,87.24 L 291.59,88.00 L 291.62,88.00 L 291.83,87.78 L 291.96,87.64 L 292.37,87.15 L 292.60,86.88 L 293.19,86.16 L 293.50,85.77 L 294.23,84.84 L 295.00,83.87 L 296.88,81.42 L 297.87,80.14 M 351.50,108.60 L 349.87,108.09 L 347.11,106.99 L 345.80,106.42 L 343.54,105.13 L 342.45,104.44 L 340.49,102.83 L 337.65,99.91 L 336.47,98.52 L 334.58,95.47 L 333.71,93.90 L 332.46,90.57 L 331.91,88.88 L 331.29,85.39 L 331.06,83.63 L 331.07,80.07 L 331.16,78.29 L 331.79,74.77 L 332.19,73.03 L 333.44,69.67 L 334.14,68.01 L 336.01,64.91 L 339.50,60.66 L 340.48,59.68 L 342.47,57.99 L 343.48,57.18 L 345.54,55.82 L 346.59,55.18 L 348.72,54.15 L 349.79,53.68 L 352.00,52.99 L 353.11,52.69 L 355.38,52.33 L 356.52,52.20 L 358.87,52.17 L 360.05,52.21 L 362.46,52.52 L 366.17,53.36 L 366.86,53.56 L 368.39,54.19 L 369.18,54.54 L 370.82,55.41 L 372.47,56.32 L 375.66,58.53 L 376.41,59.10 L 377.76,60.22 L 378.41,60.77 L 379.46,61.83 L 379.94,62.34 L 380.59,63.25 L 381.00,64.38 L 381.00,64.54 L 380.64,65.20 L 380.41,65.57 L 379.67,66.54 L 379.26,67.05 L 378.23,68.21 L 376.47,70.03 L 371.93,74.48 L 369.50,71.38 L 368.65,70.29 L 366.68,68.65 L 365.66,67.90 L 363.44,66.92 L 362.31,66.51 L 359.97,66.17 L 358.80,66.08 L 356.47,66.36 L 355.32,66.58 L 353.12,67.45 L 352.05,67.96 L 350.11,69.41 L 349.19,70.21 L 347.64,72.20 L 345.91,75.78 L 345.53,76.92 L 345.15,79.18 L 345.02,80.31 L 345.10,82.52 L 345.20,83.61 L 345.70,85.69 L 346.01,86.70 L 346.90,88.59 L 347.39,89.50 L 348.64,91.13 L 349.30,91.90 L 350.86,93.20 L 351.68,93.81 L 353.52,94.71 L 356.56,95.56 L 357.89,95.76 L 360.07,95.85 L 361.11,95.83 L 362.94,95.41 L 363.84,95.12 L 365.64,94.09 L 368.64,91.75 L 372.14,88.67 L 376.82,93.40 L 381.50,98.13 L 376.86,102.38 L 375.94,103.22 L 374.02,104.69 L 373.05,105.39 L 371.03,106.57 L 370.01,107.13 L 367.92,108.03 L 366.86,108.44 L 364.71,109.05 L 363.63,109.31 L 361.44,109.62 L 360.34,109.74 L 358.12,109.74 L 357.02,109.71 L 354.80,109.40 L 353.70,109.21 M 451.20,108.11 L 449.39,107.48 L 446.18,105.88 L 444.64,105.03 L 441.96,102.94 L 440.67,101.82 L 438.44,99.18 L 435.53,94.52 L 434.92,93.35 L 433.96,90.98 L 433.52,89.79 L 432.88,87.40 L 432.59,86.21 L 432.25,83.83 L 432.11,82.64 L 432.06,80.28 L 432.07,79.11 L 432.30,76.80 L 432.45,75.65 L 432.94,73.41 L 433.22,72.31 L 433.97,70.16 L 434.38,69.10 L 435.38,67.07 L 435.90,66.08 L 437.13,64.18 L 437.77,63.26 L 439.22,61.52 L 439.98,60.68 L 441.63,59.13 L 442.49,58.38 L 444.35,57.03 L 445.30,56.38 L 447.34,55.26 L 448.38,54.73 L 450.60,53.86 L 451.73,53.46 L 454.11,52.86 L 457.85,52.28 L 459.62,52.12 L 462.99,52.27 L 464.64,52.41 L 467.73,53.13 L 469.25,53.55 L 472.05,54.77 L 473.41,55.44 L 475.90,57.11 L 477.11,57.99 L 479.27,60.04 L 480.30,61.11 L 482.11,63.48 L 482.96,64.69 L 484.39,67.32 L 485.06,68.66 L 486.10,71.48 L 486.57,72.90 L 487.19,75.85 L 487.45,77.34 L 487.64,80.36 L 487.68,81.88 L 487.41,84.90 L 487.22,86.41 L 486.47,89.39 L 486.04,90.86 L 484.80,93.72 L 484.12,95.12 L 482.37,97.80 L 481.42,99.11 L 479.13,101.54 L 475.07,104.86 L 474.06,105.54 L 472.10,106.70 L 471.13,107.25 L 469.22,108.13 L 468.27,108.53 L 466.38,109.14 L 465.44,109.40 L 463.54,109.73 L 462.59,109.86 L 460.65,109.92 L 459.67,109.91 L 457.66,109.70 L 456.64,109.57 L 454.53,109.10 L 453.45,108.83 M 467.10,93.73 L 468.18,93.01 L 469.96,91.28 L 470.79,90.37 L 472.05,88.35 L 472.62,87.31 L 473.37,85.08 L 473.67,83.96 L 473.89,81.63 L 473.94,80.46 L 473.63,78.12 L 473.41,76.96 L 472.58,74.70 L 472.09,73.59 L 470.72,71.52 L 468.06,68.70 L 467.12,67.91 L 464.96,66.85 L 463.85,66.40 L 461.43,66.03 L 460.20,65.93 L 457.65,66.27 L 453.78,67.58 L 452.44,68.23 L 450.38,69.73 L 449.44,70.52 L 448.13,72.45 L 447.55,73.48 L 446.88,76.01 L 446.50,80.68 L 446.50,82.46 L 446.90,85.41 L 447.18,86.79 L 448.20,89.07 L 448.80,90.15 L 450.54,91.93 L 454.07,94.25 L 455.23,94.84 L 457.50,95.55 L 458.62,95.82 L 460.80,95.90 L 461.89,95.85 L 464.00,95.29 L 465.05,94.93 M 239.28,107.75 L 239.20,107.65 L 238.82,106.71 L 238.59,106.13 L 237.93,104.33 L 237.57,103.33 L 236.68,100.78 L 236.21,99.43 L 235.12,96.27 L 234.57,94.62 L 233.34,90.98 L 232.71,89.11 L 231.38,85.11 L 230.02,81.05 L 227.18,72.39 L 225.76,68.06 L 223.04,59.64 L 222.39,57.60 L 221.15,53.74 L 220.55,51.86 L 219.47,48.41 L 218.94,46.74 L 218.04,43.83 L 217.62,42.46 L 216.95,40.21 L 216.65,39.19 L 216.25,37.74 L 216.00,36.60 L 216.00,36.27 L 216.28,35.80 L 216.48,35.59 L 217.30,35.31 L 217.80,35.19 L 219.36,35.07 L 222.75,35.02 L 223.68,35.02 L 225.46,35.08 L 226.33,35.12 L 227.86,35.24 L 228.58,35.31 L 229.68,35.48 L 230.66,35.77 L 230.74,35.82 L 231.03,36.37 L 231.19,36.71 L 231.63,37.79 L 231.87,38.40 L 232.44,39.95 L 232.74,40.78 L 233.42,42.75 L 233.77,43.78 L 234.54,46.10 L 234.93,47.30 L 235.77,49.91 L 238.42,58.50 L 238.90,60.09 L 239.76,62.95 L 240.17,64.34 L 240.92,66.84 L 241.29,68.04 L 241.93,70.19 L 242.25,71.23 L 242.80,73.06 L 243.07,73.94 L 243.54,75.48 L 243.76,76.21 L 244.15,77.47 L 244.53,78.68 L 245.08,80.38 L 245.33,81.13 L 245.68,82.06 L 245.84,82.46 L 246.06,82.83 L 246.16,82.97 L 246.31,82.98 L 246.52,82.81 L 246.55,82.78 L 246.75,82.22 L 246.88,81.86 L 247.26,80.69 L 247.47,80.04 L 248.01,78.36 L 248.30,77.46 L 248.96,75.35 L 249.30,74.25 L 250.06,71.80 L 250.45,70.55 L 251.28,67.85 L 252.13,65.11 L 253.91,59.27 L 254.81,56.34 L 256.53,50.66 L 256.94,49.28 L 257.72,46.67 L 258.10,45.41 L 258.80,43.09 L 259.13,41.97 L 259.70,40.02 L 259.97,39.11 L 260.39,37.62 L 260.59,36.95 L 260.84,36.02 L 261.00,35.33 L 261.00,35.29 L 261.63,35.20 L 262.04,35.16 L 263.35,35.10 L 264.08,35.07 L 265.89,35.03 L 269.00,35.00 L 270.32,35.00 L 272.48,35.07 L 273.47,35.12 L 274.98,35.29 L 275.65,35.38 L 276.49,35.64 L 277.00,36.13 L 277.00,36.21 L 276.76,37.09 L 276.60,37.64 L 276.08,39.40 L 275.78,40.38 L 275.00,42.91 L 274.57,44.26 L 273.56,47.46 L 273.04,49.14 L 271.83,52.92 L 271.21,54.87 L 269.85,59.11 L 269.15,61.28 L 267.66,65.90 L 265.31,73.13 L 253.61,109.00 L 246.93,109.00 L 245.89,109.00 L 244.06,108.91 L 243.20,108.86 L 241.77,108.67 L 241.11,108.56 L 240.14,108.27 L 239.72,108.12 M 409.00,107.48 L 407.44,106.99 L 404.48,105.48 L 403.04,104.65 L 400.40,102.55 L 399.14,101.43 L 396.97,98.85 L 394.38,94.57 L 393.88,93.49 L 393.16,91.56 L 392.84,90.59 L 392.44,88.48 L 392.27,87.35 L 392.10,84.49 L 392.07,83.70 L 392.03,81.89 L 392.01,78.75 L 392.00,68.00 L 388.50,68.00 L 385.00,68.00 L 385.00,61.00 L 385.00,54.00 L 388.50,54.00 L 392.00,54.00 L 392.00,43.00 L 392.00,32.00 L 398.50,32.00 L 405.00,32.00 L 405.00,43.00 L 405.00,54.00 L 416.05,54.00 L 427.09,54.00 L 426.80,60.75 L 426.50,67.50 L 415.62,67.79 L 404.74,68.07 L 405.20,77.79 L 405.27,79.25 L 405.50,81.93 L 405.62,83.22 L 405.93,85.45 L 406.09,86.50 L 406.47,88.13 L 407.08,89.75 L 407.61,90.60 L 409.17,92.00 L 410.04,92.65 L 412.24,93.65 L 413.41,94.09 L 416.19,94.66 L 420.95,95.00 L 427.09,95.00 L 426.80,101.75 L 426.50,108.50 L 420.00,108.70 L 418.21,108.76 L 414.09,108.43 L 413.09,108.32 L 411.26,108.02 L 410.39,107.86 M 496.71,108.38 L 496.66,108.33 L 496.57,107.69 L 496.52,107.28 L 496.43,105.98 L 496.39,105.26 L 496.31,103.38 L 496.28,102.38 L 496.21,99.99 L 496.18,98.74 L 496.12,95.93 L 496.10,94.48 L 496.06,91.31 L 496.00,80.83 L 496.00,79.01 L 496.00,75.68 L 496.01,74.07 L 496.02,71.16 L 496.03,69.76 L 496.05,67.24 L 496.07,66.03 L 496.11,63.89 L 496.14,62.87 L 496.20,61.08 L 496.24,60.23 L 496.33,58.78 L 496.38,58.09 L 496.51,56.96 L 496.58,56.42 L 496.74,55.58 L 496.82,55.19 L 497.02,54.62 L 497.13,54.37 L 497.38,54.05 L 497.63,53.79 L 498.30,53.95 L 498.67,54.13 L 499.57,55.03 L 501.24,57.05 L 503.63,60.10 L 508.81,57.41 L 509.86,56.86 L 511.79,56.05 L 512.76,55.68 L 514.83,55.15 L 515.92,54.91 L 518.53,54.59 L 519.23,54.51 L 520.81,54.39 L 523.49,54.22 L 533.00,53.73 L 533.00,60.86 L 533.00,68.00 L 525.97,68.00 L 523.94,68.00 L 520.50,68.31 L 518.88,68.52 L 516.24,69.26 L 515.01,69.69 L 513.16,70.85 L 511.25,73.10 L 511.15,73.29 L 510.96,73.92 L 510.86,74.27 L 510.69,75.19 L 510.61,75.70 L 510.46,76.92 L 510.38,77.57 L 510.25,79.09 L 510.19,79.88 L 510.08,81.69 L 510.03,82.63 L 509.94,84.71 L 509.90,85.79 L 509.83,88.15 L 509.75,92.00 L 509.50,108.50 L 503.46,108.79 L 502.63,108.83 L 501.06,108.85 L 500.30,108.85 L 498.98,108.79 L 498.37,108.75 L 497.46,108.63 L 497.07,108.56 M 541.00,72.09 L 541.00,35.00 L 546.75,35.06 L 547.54,35.07 L 549.86,35.14 L 551.11,35.19 L 554.07,35.33 L 563.60,35.92 L 564.78,36.00 L 566.83,36.17 L 567.81,36.25 L 569.52,36.43 L 571.15,36.62 L 573.67,37.09 L 574.85,37.36 L 576.90,38.09 L 580.07,39.61 L 581.87,40.58 L 585.08,42.81 L 586.63,43.99 L 589.38,46.69 L 590.71,48.10 L 593.07,51.33 L 596.24,56.84 L 596.97,58.32 L 597.98,60.63 L 598.42,61.73 L 598.96,63.77 L 599.18,64.82 L 599.39,67.23 L 599.43,67.89 L 599.46,69.38 L 599.48,71.98 L 599.47,73.75 L 599.36,76.53 L 599.28,77.82 L 598.96,79.97 L 598.77,81.01 L 598.15,82.98 L 596.80,86.22 L 595.87,88.22 L 593.42,92.02 L 592.12,93.88 L 589.03,97.29 L 587.42,98.93 L 583.84,101.78 L 578.09,105.27 L 577.29,105.66 L 575.92,106.30 L 575.26,106.61 L 574.06,107.10 L 572.87,107.55 L 570.32,108.10 L 569.62,108.21 L 567.98,108.38 L 567.11,108.46 L 565.01,108.57 L 563.89,108.63 L 561.18,108.71 L 556.25,108.83 L 541.00,109.18 L 541.00,72.09 M 572.51,92.14 L 573.48,91.69 L 575.26,90.64 L 576.12,90.09 L 577.67,88.83 L 578.42,88.18 L 579.74,86.75 L 580.38,86.01 L 581.48,84.43 L 582.52,82.82 L 583.91,79.27 L 584.49,77.46 L 584.95,73.66 L 585.07,71.75 L 584.59,67.93 L 584.22,66.04 L 582.78,62.41 L 582.36,61.52 L 581.34,59.82 L 580.80,58.98 L 579.53,57.41 L 578.87,56.63 L 577.36,55.21 L 574.81,53.26 L 573.95,52.69 L 572.41,51.85 L 571.63,51.48 L 570.00,50.96 L 569.14,50.73 L 567.06,50.44 L 563.07,50.16 L 555.50,49.82 L 555.60,62.16 L 555.62,63.86 L 555.65,67.72 L 555.67,69.69 L 555.72,73.74 L 555.74,75.74 L 555.79,79.49 L 555.85,84.25 L 556.00,94.00 L 562.25,93.98 L 564.18,93.97 L 567.90,93.47 L 568.79,93.32 L 570.40,92.90 L 571.18,92.67 M 610.67,108.33 L 610.62,108.29 L 610.53,107.45 L 610.49,106.92 L 610.41,105.20 L 610.37,104.23 L 610.29,101.71 L 610.26,100.36 L 610.20,97.14 L 610.17,95.46 L 610.11,91.66 L 610.09,89.69 L 610.05,85.40 L 610.04,83.20 L 610.01,78.52 L 610.00,71.18 L 610.00,34.69 L 631.65,35.40 L 633.12,35.45 L 635.79,35.54 L 637.09,35.59 L 639.45,35.68 L 640.60,35.72 L 642.67,35.82 L 643.67,35.87 L 645.48,35.98 L 647.23,36.09 L 650.05,36.37 L 651.36,36.52 L 653.47,36.92 L 654.46,37.14 L 656.07,37.71 L 656.84,38.02 L 658.16,38.81 L 658.80,39.23 L 660.04,40.28 L 662.04,42.19 L 663.07,43.23 L 664.74,45.41 L 665.50,46.52 L 666.63,48.89 L 667.14,50.10 L 667.76,52.71 L 668.15,56.96 L 668.16,58.24 L 667.64,61.12 L 667.30,62.57 L 666.27,65.36 L 665.71,66.69 L 664.40,68.83 L 664.07,69.30 L 663.40,70.01 L 662.40,70.68 L 662.08,70.80 L 661.69,71.05 L 661.55,71.19 L 661.52,71.53 L 661.55,71.73 L 661.89,72.26 L 662.83,73.38 L 663.80,74.44 L 665.34,76.84 L 666.03,78.08 L 667.02,80.73 L 667.45,82.07 L 667.90,84.86 L 668.06,86.26 L 667.98,89.08 L 667.88,90.49 L 667.28,93.22 L 666.91,94.57 L 665.80,97.12 L 665.19,98.36 L 663.57,100.60 L 660.59,103.50 L 659.77,104.13 L 658.27,105.18 L 657.52,105.67 L 656.06,106.48 L 655.31,106.86 L 653.70,107.45 L 652.87,107.72 L 650.95,108.14 L 649.93,108.32 L 647.53,108.59 L 646.25,108.70 L 643.19,108.85 L 641.56,108.91 L 637.67,108.97 L 636.63,108.98 L 634.38,108.99 L 630.70,109.00 L 628.04,109.00 L 623.13,108.95 L 621.95,108.93 L 619.78,108.89 L 618.72,108.86 L 616.83,108.80 L 615.92,108.77 L 614.36,108.71 L 613.62,108.67 L 612.45,108.59 L 611.92,108.55 L 611.20,108.47 L 610.89,108.42 M 651.75,91.44 L 652.22,90.91 L 652.92,89.82 L 653.23,89.27 L 653.64,88.16 L 653.81,87.60 L 653.93,86.51 L 653.96,85.96 L 653.80,84.92 L 653.68,84.41 L 653.25,83.45 L 653.01,82.98 L 652.31,82.14 L 651.93,81.74 L 650.98,81.06 L 649.27,80.24 L 649.08,80.18 L 648.49,80.06 L 648.16,80.00 L 647.33,79.89 L 646.44,79.79 L 644.08,79.65 L 642.83,79.59 L 639.99,79.54 L 635.50,79.58 L 624.50,79.88 L 624.21,86.89 L 623.91,93.90 L 629.71,94.32 L 630.50,94.38 L 632.51,94.45 L 633.56,94.48 L 635.85,94.51 L 637.01,94.51 L 639.32,94.48 L 642.50,94.37 L 644.00,94.29 L 646.20,94.08 L 647.20,93.96 L 648.65,93.60 L 649.31,93.40 L 650.33,92.78 L 650.82,92.42 M 651.55,62.55 L 652.31,61.78 L 653.28,60.09 L 653.68,59.23 L 653.91,57.44 L 653.94,56.54 L 653.43,54.78 L 651.83,52.31 L 651.31,51.77 L 650.32,51.03 L 649.76,50.71 L 648.10,50.34 L 647.60,50.26 L 646.35,50.16 L 645.68,50.11 L 643.99,50.05 L 643.08,50.03 L 640.86,50.01 L 636.83,50.00 L 624.00,50.00 L 624.00,57.50 L 624.00,65.00 L 636.55,65.00 L 638.04,65.00 L 640.54,64.99 L 641.71,64.98 L 643.62,64.95 L 644.51,64.92 L 645.94,64.84 L 646.61,64.79 L 647.66,64.65 L 648.64,64.49 L 649.90,63.92 L 650.48,63.58 M 60.50,100.03 L 59.50,99.80 L 57.62,99.16 L 56.70,98.81 L 54.98,97.94 L 54.15,97.48 L 52.60,96.40 L 51.86,95.84 L 50.51,94.56 L 49.86,93.90 L 48.72,92.45 L 48.18,91.70 L 47.27,90.09 L 46.84,89.26 L 46.17,87.50 L 45.45,84.71 L 45.25,83.59 L 45.31,80.92 L 45.40,79.55 L 45.97,76.78 L 46.31,75.43 L 47.26,73.06 L 47.51,72.52 L 48.07,71.60 L 48.97,70.53 L 49.38,70.16 L 49.92,69.78 L 50.15,69.66 L 50.38,69.93 L 50.47,70.16 L 50.45,71.24 L 50.44,71.58 L 50.37,72.42 L 50.23,73.99 L 50.11,75.25 L 50.14,77.62 L 50.20,78.78 L 50.59,80.97 L 50.82,82.03 L 51.56,84.02 L 51.98,84.99 L 53.06,86.78 L 53.65,87.65 L 55.07,89.22 L 55.83,89.98 L 57.59,91.33 L 58.51,91.98 L 60.60,93.11 L 64.09,94.53 L 65.17,94.89 L 66.87,95.36 L 67.67,95.55 L 69.03,95.70 L 69.69,95.74 L 71.00,95.59 L 73.22,95.05 L 73.91,94.85 L 75.04,94.55 L 75.56,94.43 L 76.36,94.29 L 76.72,94.25 L 77.19,94.26 L 77.38,94.29 L 77.52,94.45 L 77.55,94.55 L 77.35,94.86 L 77.21,95.03 L 76.68,95.47 L 76.37,95.71 L 75.51,96.28 L 73.83,97.29 L 72.57,98.01 L 70.22,99.06 L 69.06,99.53 L 66.86,100.10 L 65.77,100.32 L 63.65,100.41 L 62.60,100.40 M 154.50,100.06 L 153.35,99.79 L 151.20,98.98 L 150.15,98.54 L 148.21,97.43 L 147.27,96.83 L 145.57,95.43 L 144.75,94.70 L 143.32,93.06 L 142.63,92.21 L 141.49,90.35 L 140.96,89.40 L 140.14,87.35 L 139.77,86.31 L 139.30,84.13 L 139.01,80.71 L 139.00,80.36 L 139.14,79.48 L 139.23,79.01 L 139.53,77.95 L 139.85,76.86 L 140.80,74.50 L 141.30,73.35 L 142.38,71.38 L 142.65,70.94 L 143.15,70.26 L 143.84,69.60 L 143.95,69.53 L 144.13,69.79 L 144.21,69.98 L 144.31,70.69 L 144.34,71.09 L 144.34,72.16 L 144.22,74.05 L 144.10,75.29 L 144.14,77.63 L 144.20,78.79 L 144.59,80.96 L 144.83,82.02 L 145.56,84.00 L 145.97,84.97 L 147.05,86.75 L 147.63,87.62 L 149.04,89.19 L 149.79,89.95 L 151.52,91.30 L 152.43,91.95 L 154.48,93.07 L 157.90,94.47 L 158.91,94.80 L 160.56,95.24 L 161.34,95.43 L 162.71,95.58 L 163.38,95.62 L 164.74,95.49 L 167.03,94.99 L 168.18,94.68 L 170.11,94.33 L 170.53,94.27 L 171.15,94.23 L 171.65,94.32 L 171.73,94.40 L 171.59,94.68 L 171.47,94.84 L 171.00,95.26 L 170.45,95.71 L 168.72,96.80 L 167.79,97.35 L 165.74,98.39 L 163.00,99.47 L 161.87,99.78 L 160.20,100.19 L 159.43,100.36 L 158.20,100.50 L 157.61,100.54 L 156.48,100.45 L 155.89,100.37 Z" fill="#ffffff"/>
</g>
</svg>