<svg xmlns="http://www.w3.org/2000/svg" version="1.0" width="667.000000pt" height="374.000000pt" viewBox="0 0 667.000000 374.000000" preserveAspectRatio="xMidYMid meet">

<g transform="translate(0.000000,374.000000) scale(0.100000,-0.100000)" fill="#ffffff" stroke="none">
<path d="M3850 3527 c-111 -40 -149 -66 -251 -169 -50 -51 -75 -68 -105 -74 -42 -9 -337 -12 -416 -5 -53 5 -85 32 -141 116 -64 96 -166 136 -350 139 -107 1 -115 -1 -179 -31 -38 -17 -68 -37 -68 -43 0 -6 -4 -9 -9 -6 -5 3 -60 -41 -122 -99 -167 -153 -224 -186 -393 -230 -77 -20 -173 -51 -214 -70 -301 -139 -799 -557 -1018 -855 -82 -111 -159 -273 -189 -400 -48 -196 -35 -487 30 -685 75 -230 259 -491 437 -623 31 -23 59 -46 62 -51 15 -23 233 -135 324 -165 191 -65 436 -87 582 -53 125 29 248 67 316 98 95 43 251 136 263 157 6 9 11 13 11 9 0 -10 68 46 151 125 154 146 285 378 340 606 7 29 22 62 33 73 21 23 26 23 201 -1 39 -5 122 -9 186 -10 113 0 117 1 157 30 48 34 59 36 90 14 34 -23 49 -56 126 -274 65 -182 192 -371 337 -501 71 -63 158 -129 189 -143 8 -3 38 -20 65 -36 28 -17 57 -33 65 -37 8 -3 33 -14 55 -23 74 -33 199 -68 305 -85 262 -44 591 26 839 178 394 240 624 648 624 1102 0 244 -89 524 -231 724 -148 209 -735 706 -981 831 -60 30 -181 69 -296 95 -90 20 -182 71 -270 149 -38 34 -95 82 -125 106 -30 25 -63 52 -73 61 -10 9 -41 29 -70 45 -74 40 -194 45 -287 11z m-1986 -1158 c174 -41 294 -119 461 -300 63 -69 166 -220 171 -254 1 -5 11 -46 23 -89 34 -130 24 -368 -23 -526 -18 -60 -72 -173 -110 -229 -72 -107 -222 -231 -356 -293 -232 -109 -527 -108 -755 3 -129 62 -152 78 -235 156 -184 173 -280 398 -280 657 0 301 110 530 344 715 106 84 214 126 411 162 137 24 238 23 349 -2z m3246 -4 c298 -54 561 -308 655 -632 125 -430 -121 -908 -552 -1074 -266 -103 -561 -71 -802 88 -96 63 -239 217 -298 321 -78 138 -97 225 -97 432 1 135 5 179 22 243 107 395 484 663 902 640 52 -2 129 -11 170 -18z m-1687 -126 c56 -29 171 -145 191 -193 18 -44 21 -129 6 -207 -27 -142 -112 -230 -282 -294 -45 -17 -48 -17 -120 5 -152 47 -226 108 -274 230 -23 59 -26 79 -22 142 3 43 13 92 26 120 31 72 104 143 186 183 64 31 79 35 159 35 70 0 96 -4 130 -21z" fill="#ffffff"/>
<path d="M1146 1878 c-66 -78 -116 -242 -116 -380 0 -292 239 -562 547 -618 74 -13 193 -1 277 29 105 37 309 161 265 161 -9 0 -60 -11 -113 -25 -129 -34 -193 -32 -308 6 -301 99 -457 256 -509 514 -8 40 -10 108 -5 208 3 81 4 147 2 147 -2 0 -20 -19 -40 -42z" fill="#ffffff"/>
<path d="M4412 1893 c-47 -69 -103 -193 -122 -272 -28 -117 11 -314 85 -431 45 -71 152 -176 224 -219 87 -53 150 -76 245 -92 68 -12 88 -11 160 4 129 26 289 100 366 167 l25 22 -45 -7 c-25 -4 -82 -16 -128 -26 -45 -10 -99 -19 -118 -19 -71 0 -226 51 -356 116 -27 14 -83 59 -127 102 -63 62 -87 95 -119 162 -56 118 -67 176 -64 363 1 86 0 157 -2 157 -3 0 -13 -12 -24 -27z" fill="#ffffff"/>
</g>
</svg>